<svg xmlns="http://www.w3.org/2000/svg" viewBox="0 0 1200 630" width="1200" height="630" font-family="'SFMono-Regular','Consolas','Liberation Mono',Menlo,monospace">
  <!-- backdrop -->
  <rect width="1200" height="630" fill="#12131c"/>
  <!-- terminal window -->
  <rect x="80" y="70" width="1040" height="490" rx="12" fill="#1a1b26" stroke="#2a2c3d" stroke-width="1.5"/>
  <!-- title bar -->
  <rect x="80" y="70" width="1040" height="42" rx="12" fill="#232434"/>
  <rect x="80" y="98" width="1040" height="14" fill="#1a1b26"/>
  <circle cx="108" cy="91" r="7" fill="#ff5f56"/>
  <circle cx="132" cy="91" r="7" fill="#ffbd2e"/>
  <circle cx="156" cy="91" r="7" fill="#27c93f"/>
  <text x="600" y="96" fill="#565872" font-size="15" text-anchor="middle">jimmy@debian-msi: ~</text>

  <!-- command 1 -->
  <text x="110" y="162" font-size="19" fill="#7aa2f7">$</text>
  <text x="128" y="162" font-size="19" fill="#c0caf5">ps -o pid,user,nlwp,pcpu,stat,args -p 63572</text>

  <!-- header -->
  <text x="128" y="205" font-size="17" fill="#565872">PID</text>
  <text x="188" y="205" font-size="17" fill="#565872">USER</text>
  <text x="290" y="205" font-size="17" fill="#565872">NLWP</text>
  <text x="360" y="205" font-size="17" fill="#565872">%CPU</text>
  <text x="440" y="205" font-size="17" fill="#565872">STAT</text>
  <text x="510" y="205" font-size="17" fill="#565872">COMMAND</text>

  <!-- the smoking-gun row -->
  <rect x="96" y="220" width="1008" height="36" rx="5" fill="#f7768e18"/>
  <text x="128" y="245" font-size="18" fill="#c0caf5">63572</text>
  <text x="188" y="245" font-size="18" fill="#c0caf5">doe</text>
  <text x="290" y="245" font-size="18" fill="#ff9e64" font-weight="bold">40</text>
  <text x="360" y="245" font-size="18" fill="#f7768e" font-weight="bold">1515</text>
  <text x="440" y="245" font-size="18" fill="#c0caf5">Ssl</text>
  <text x="510" y="245" font-size="18" fill="#9ece6a" font-weight="bold">-bash</text>

  <!-- command 2 -->
  <text x="110" y="305" font-size="19" fill="#7aa2f7">$</text>
  <text x="128" y="305" font-size="19" fill="#c0caf5">ls -l /proc/63572/exe</text>
  <!-- exe result -->
  <text x="128" y="343" font-size="18" fill="#c0caf5">exe -&gt; '/tmp/.bash/bash</text>
  <text x="405" y="343" font-size="18" fill="#f7768e" font-weight="bold">(deleted)</text>
  <text x="512" y="343" font-size="18" fill="#c0caf5">'</text>

  <!-- verdict comments -->
  <text x="128" y="410" font-size="16" fill="#565872"># 40 threads. 1515% CPU. Binary deleted itself.</text>
  <text x="128" y="436" font-size="16" fill="#565872"># real bash does none of this.</text>

  <!-- punchline -->
  <text x="128" y="502" font-size="34" font-weight="bold" fill="#c0caf5">This is not bash.</text>
  <text x="470" y="502" font-size="34" font-weight="bold" fill="#f7768e">It's a miner.</text>

  <!-- blinking caret -->
  <rect x="128" y="526" width="12" height="22" fill="#7aa2f7"/>
</svg>
